
<global>
amp_veltrack=0
ampeg_attack=0.001
ampeg_release=1.5
</global>

<group>
group_label=RR1
seq_length=4
seq_position=1

<region>
hivel=31
key=D3
lovel=0
offset=6421
sample=Tenors_Solo_Drum_6_RubberSticks_Hit_P_D4_RR1.opus
</region>

<region>
hivel=63
key=D3
lovel=32
offset=5627
sample=Tenors_Solo_Drum_6_RubberSticks_Hit_MP_D4_RR1.opus
</region>

<region>
hivel=95
key=D3
lovel=64
offset=583
sample=Tenors_Solo_Drum_6_RubberSticks_Hit_MF_D4_RR1.opus
</region>

<region>
hivel=127
key=D3
lovel=96
offset=619
sample=Tenors_Solo_Drum_6_RubberSticks_Hit_F_D4_RR1.opus
</region>

<region>
hivel=31
key=D#3
lovel=0
offset=3462
sample=Tenors_Solo_Drum_5_RubberSticks_Hit_P_D4_RR1.opus
</region>

<region>
hivel=63
key=D#3
lovel=32
offset=605
sample=Tenors_Solo_Drum_5_RubberSticks_Hit_MP_D4_RR1.opus
</region>

<region>
hivel=95
key=D#3
lovel=64
offset=633
sample=Tenors_Solo_Drum_5_RubberSticks_Hit_MF_D4_RR1.opus
</region>

<region>
hivel=127
key=D#3
lovel=96
offset=637
sample=Tenors_Solo_Drum_5_RubberSticks_Hit_F_D4_RR1.opus
</region>

<region>
hivel=31
key=E3
lovel=0
offset=5019
sample=Tenors_Solo_Drum_4_RubberSticks_Hit_P_D4_RR1.opus
</region>

<region>
hivel=63
key=E3
lovel=32
offset=6409
sample=Tenors_Solo_Drum_4_RubberSticks_Hit_MP_D4_RR1.opus
</region>

<region>
hivel=95
key=E3
lovel=64
offset=588
sample=Tenors_Solo_Drum_4_RubberSticks_Hit_MF_D4_RR1.opus
</region>

<region>
hivel=127
key=E3
lovel=96
offset=692
sample=Tenors_Solo_Drum_4_RubberSticks_Hit_F_D4_RR1.opus
</region>

<region>
hivel=31
key=F3
lovel=0
offset=5421
sample=Tenors_Solo_Drum_3_RubberSticks_Hit_P_D4_RR1.opus
</region>

<region>
hivel=63
key=F3
lovel=32
offset=4367
sample=Tenors_Solo_Drum_3_RubberSticks_Hit_MP_D4_RR1.opus
</region>

<region>
hivel=95
key=F3
lovel=64
offset=708
sample=Tenors_Solo_Drum_3_RubberSticks_Hit_MF_D4_RR1.opus
</region>

<region>
hivel=127
key=F3
lovel=96
offset=698
sample=Tenors_Solo_Drum_3_RubberSticks_Hit_F_D4_RR1.opus
</region>

<region>
hivel=31
key=F#3
lovel=0
offset=1911
sample=Tenors_Solo_Drum_2_RubberSticks_Hit_P_D4_RR1.opus
</region>

<region>
hivel=63
key=F#3
lovel=32
offset=4345
sample=Tenors_Solo_Drum_2_RubberSticks_Hit_MP_D4_RR1.opus
</region>

<region>
hivel=95
key=F#3
lovel=64
offset=3751
sample=Tenors_Solo_Drum_2_RubberSticks_Hit_MF_D4_RR1.opus
</region>

<region>
hivel=127
key=F#3
lovel=96
offset=707
sample=Tenors_Solo_Drum_2_RubberSticks_Hit_F_D4_RR1.opus
</region>

<region>
hivel=31
key=G3
lovel=0
offset=4198
sample=Tenors_Solo_Drum_1_RubberSticks_Hit_P_D4_RR1.opus
</region>

<region>
hivel=63
key=G3
lovel=32
offset=4309
sample=Tenors_Solo_Drum_1_RubberSticks_Hit_MP_D4_RR1.opus
</region>

<region>
hivel=95
key=G3
lovel=64
offset=3979
sample=Tenors_Solo_Drum_1_RubberSticks_Hit_MF_D4_RR1.opus
</region>

<region>
hivel=127
key=G3
lovel=96
offset=705
sample=Tenors_Solo_Drum_1_RubberSticks_Hit_F_D4_RR1.opus
</region>
</group>

<group>
group_label=RR3
seq_length=4
seq_position=2

<region>
hivel=31
key=D3
lovel=0
offset=7304
sample=Tenors_Solo_Drum_6_RubberSticks_Hit_P_D4_RR3.opus
</region>

<region>
hivel=63
key=D3
lovel=32
offset=6398
sample=Tenors_Solo_Drum_6_RubberSticks_Hit_MP_D4_RR3.opus
</region>

<region>
hivel=95
key=D3
lovel=64
offset=738
sample=Tenors_Solo_Drum_6_RubberSticks_Hit_MF_D4_RR3.opus
</region>

<region>
hivel=127
key=D3
lovel=96
offset=692
sample=Tenors_Solo_Drum_6_RubberSticks_Hit_F_D4_RR3.opus
</region>

<region>
hivel=31
key=D#3
lovel=0
offset=4385
sample=Tenors_Solo_Drum_5_RubberSticks_Hit_P_D4_RR3.opus
</region>

<region>
hivel=63
key=D#3
lovel=32
offset=3038
sample=Tenors_Solo_Drum_5_RubberSticks_Hit_MP_D4_RR3.opus
</region>

<region>
hivel=95
key=D#3
lovel=64
offset=648
sample=Tenors_Solo_Drum_5_RubberSticks_Hit_MF_D4_RR3.opus
</region>

<region>
hivel=127
key=D#3
lovel=96
offset=747
sample=Tenors_Solo_Drum_5_RubberSticks_Hit_F_D4_RR3.opus
</region>

<region>
hivel=31
key=E3
lovel=0
offset=4042
sample=Tenors_Solo_Drum_4_RubberSticks_Hit_P_D4_RR3.opus
</region>

<region>
hivel=63
key=E3
lovel=32
offset=5105
sample=Tenors_Solo_Drum_4_RubberSticks_Hit_MP_D4_RR3.opus
</region>

<region>
hivel=95
key=E3
lovel=64
offset=588
sample=Tenors_Solo_Drum_4_RubberSticks_Hit_MF_D4_RR3.opus
</region>

<region>
hivel=127
key=E3
lovel=96
offset=740
sample=Tenors_Solo_Drum_4_RubberSticks_Hit_F_D4_RR3.opus
</region>

<region>
hivel=31
key=F3
lovel=0
offset=4801
sample=Tenors_Solo_Drum_3_RubberSticks_Hit_P_D4_RR3.opus
</region>

<region>
hivel=63
key=F3
lovel=32
offset=4231
sample=Tenors_Solo_Drum_3_RubberSticks_Hit_MP_D4_RR3.opus
</region>

<region>
hivel=95
key=F3
lovel=64
offset=741
sample=Tenors_Solo_Drum_3_RubberSticks_Hit_MF_D4_RR3.opus
</region>

<region>
hivel=127
key=F3
lovel=96
offset=689
sample=Tenors_Solo_Drum_3_RubberSticks_Hit_F_D4_RR3.opus
</region>

<region>
hivel=31
key=F#3
lovel=0
offset=1588
sample=Tenors_Solo_Drum_2_RubberSticks_Hit_P_D4_RR3.opus
</region>

<region>
hivel=63
key=F#3
lovel=32
offset=2943
sample=Tenors_Solo_Drum_2_RubberSticks_Hit_MP_D4_RR3.opus
</region>

<region>
hivel=95
key=F#3
lovel=64
offset=585
sample=Tenors_Solo_Drum_2_RubberSticks_Hit_MF_D4_RR3.opus
</region>

<region>
hivel=127
key=F#3
lovel=96
offset=736
sample=Tenors_Solo_Drum_2_RubberSticks_Hit_F_D4_RR3.opus
</region>

<region>
hivel=31
key=G3
lovel=0
offset=5849
sample=Tenors_Solo_Drum_1_RubberSticks_Hit_P_D4_RR3.opus
</region>

<region>
hivel=63
key=G3
lovel=32
offset=5176
sample=Tenors_Solo_Drum_1_RubberSticks_Hit_MP_D4_RR3.opus
</region>

<region>
hivel=95
key=G3
lovel=64
offset=4555
sample=Tenors_Solo_Drum_1_RubberSticks_Hit_MF_D4_RR3.opus
</region>

<region>
hivel=127
key=G3
lovel=96
offset=697
sample=Tenors_Solo_Drum_1_RubberSticks_Hit_F_D4_RR3.opus
</region>
</group>

<group>
group_label=RR5
seq_length=4
seq_position=3

<region>
hivel=31
key=D3
lovel=0
offset=6875
sample=Tenors_Solo_Drum_6_RubberSticks_Hit_P_D4_RR5.opus
</region>

<region>
hivel=63
key=D3
lovel=32
offset=6594
sample=Tenors_Solo_Drum_6_RubberSticks_Hit_MP_D4_RR5.opus
</region>

<region>
hivel=95
key=D3
lovel=64
offset=739
sample=Tenors_Solo_Drum_6_RubberSticks_Hit_MF_D4_RR5.opus
</region>

<region>
hivel=127
key=D3
lovel=96
offset=695
sample=Tenors_Solo_Drum_6_RubberSticks_Hit_F_D4_RR5.opus
</region>

<region>
hivel=31
key=D#3
lovel=0
offset=4709
sample=Tenors_Solo_Drum_5_RubberSticks_Hit_P_D4_RR5.opus
</region>

<region>
hivel=63
key=D#3
lovel=32
offset=3068
sample=Tenors_Solo_Drum_5_RubberSticks_Hit_MP_D4_RR5.opus
</region>

<region>
hivel=95
key=D#3
lovel=64
offset=601
sample=Tenors_Solo_Drum_5_RubberSticks_Hit_MF_D4_RR5.opus
</region>

<region>
hivel=127
key=D#3
lovel=96
offset=592
sample=Tenors_Solo_Drum_5_RubberSticks_Hit_F_D4_RR5.opus
</region>

<region>
hivel=31
key=E3
lovel=0
offset=5685
sample=Tenors_Solo_Drum_4_RubberSticks_Hit_P_D4_RR5.opus
</region>

<region>
hivel=63
key=E3
lovel=32
offset=5221
sample=Tenors_Solo_Drum_4_RubberSticks_Hit_MP_D4_RR5.opus
</region>

<region>
hivel=95
key=E3
lovel=64
offset=625
sample=Tenors_Solo_Drum_4_RubberSticks_Hit_MF_D4_RR5.opus
</region>

<region>
hivel=127
key=E3
lovel=96
offset=714
sample=Tenors_Solo_Drum_4_RubberSticks_Hit_F_D4_RR5.opus
</region>

<region>
hivel=31
key=F3
lovel=0
offset=4740
sample=Tenors_Solo_Drum_3_RubberSticks_Hit_P_D4_RR5.opus
</region>

<region>
hivel=63
key=F3
lovel=32
offset=3828
sample=Tenors_Solo_Drum_3_RubberSticks_Hit_MP_D4_RR5.opus
</region>

<region>
hivel=95
key=F3
lovel=64
offset=698
sample=Tenors_Solo_Drum_3_RubberSticks_Hit_MF_D4_RR5.opus
</region>

<region>
hivel=127
key=F3
lovel=96
offset=742
sample=Tenors_Solo_Drum_3_RubberSticks_Hit_F_D4_RR5.opus
</region>

<region>
hivel=31
key=F#3
lovel=0
offset=1936
sample=Tenors_Solo_Drum_2_RubberSticks_Hit_P_D4_RR5.opus
</region>

<region>
hivel=63
key=F#3
lovel=32
offset=4192
sample=Tenors_Solo_Drum_2_RubberSticks_Hit_MP_D4_RR5.opus
</region>

<region>
hivel=95
key=F#3
lovel=64
offset=3453
sample=Tenors_Solo_Drum_2_RubberSticks_Hit_MF_D4_RR5.opus
</region>

<region>
hivel=127
key=F#3
lovel=96
offset=694
sample=Tenors_Solo_Drum_2_RubberSticks_Hit_F_D4_RR5.opus
</region>

<region>
hivel=31
key=G3
lovel=0
offset=6048
sample=Tenors_Solo_Drum_1_RubberSticks_Hit_P_D4_RR5.opus
</region>

<region>
hivel=63
key=G3
lovel=32
offset=4450
sample=Tenors_Solo_Drum_1_RubberSticks_Hit_MP_D4_RR5.opus
</region>

<region>
hivel=95
key=G3
lovel=64
offset=5283
sample=Tenors_Solo_Drum_1_RubberSticks_Hit_MF_D4_RR5.opus
</region>

<region>
hivel=127
key=G3
lovel=96
offset=691
sample=Tenors_Solo_Drum_1_RubberSticks_Hit_F_D4_RR5.opus
</region>
</group>

<group>
group_label=RR7
seq_length=4
seq_position=4

<region>
hivel=31
key=D3
lovel=0
offset=6386
sample=Tenors_Solo_Drum_6_RubberSticks_Hit_P_D4_RR7.opus
</region>

<region>
hivel=63
key=D3
lovel=32
offset=6746
sample=Tenors_Solo_Drum_6_RubberSticks_Hit_MP_D4_RR7.opus
</region>

<region>
hivel=95
key=D3
lovel=64
offset=737
sample=Tenors_Solo_Drum_6_RubberSticks_Hit_MF_D4_RR7.opus
</region>

<region>
hivel=127
key=D3
lovel=96
offset=601
sample=Tenors_Solo_Drum_6_RubberSticks_Hit_F_D4_RR7.opus
</region>

<region>
hivel=31
key=D#3
lovel=0
offset=5273
sample=Tenors_Solo_Drum_5_RubberSticks_Hit_P_D4_RR7.opus
</region>

<region>
hivel=63
key=D#3
lovel=32
offset=2901
sample=Tenors_Solo_Drum_5_RubberSticks_Hit_MP_D4_RR7.opus
</region>

<region>
hivel=95
key=D#3
lovel=64
offset=694
sample=Tenors_Solo_Drum_5_RubberSticks_Hit_MF_D4_RR7.opus
</region>

<region>
hivel=127
key=D#3
lovel=96
offset=617
sample=Tenors_Solo_Drum_5_RubberSticks_Hit_F_D4_RR7.opus
</region>

<region>
hivel=31
key=E3
lovel=0
offset=5389
sample=Tenors_Solo_Drum_4_RubberSticks_Hit_P_D4_RR7.opus
</region>

<region>
hivel=63
key=E3
lovel=32
offset=5201
sample=Tenors_Solo_Drum_4_RubberSticks_Hit_MP_D4_RR7.opus
</region>

<region>
hivel=95
key=E3
lovel=64
offset=703
sample=Tenors_Solo_Drum_4_RubberSticks_Hit_MF_D4_RR7.opus
</region>

<region>
hivel=127
key=E3
lovel=96
offset=694
sample=Tenors_Solo_Drum_4_RubberSticks_Hit_F_D4_RR7.opus
</region>

<region>
hivel=31
key=F3
lovel=0
offset=4156
sample=Tenors_Solo_Drum_3_RubberSticks_Hit_P_D4_RR7.opus
</region>

<region>
hivel=63
key=F3
lovel=32
offset=4429
sample=Tenors_Solo_Drum_3_RubberSticks_Hit_MP_D4_RR7.opus
</region>

<region>
hivel=95
key=F3
lovel=64
offset=744
sample=Tenors_Solo_Drum_3_RubberSticks_Hit_MF_D4_RR7.opus
</region>

<region>
hivel=127
key=F3
lovel=96
offset=741
sample=Tenors_Solo_Drum_3_RubberSticks_Hit_F_D4_RR7.opus
</region>

<region>
hivel=31
key=F#3
lovel=0
offset=2278
sample=Tenors_Solo_Drum_2_RubberSticks_Hit_P_D4_RR7.opus
</region>

<region>
hivel=63
key=F#3
lovel=32
offset=3429
sample=Tenors_Solo_Drum_2_RubberSticks_Hit_MP_D4_RR7.opus
</region>

<region>
hivel=95
key=F#3
lovel=64
offset=2897
sample=Tenors_Solo_Drum_2_RubberSticks_Hit_MF_D4_RR7.opus
</region>

<region>
hivel=127
key=F#3
lovel=96
offset=721
sample=Tenors_Solo_Drum_2_RubberSticks_Hit_F_D4_RR7.opus
</region>

<region>
hivel=31
key=G3
lovel=0
offset=5300
sample=Tenors_Solo_Drum_1_RubberSticks_Hit_P_D4_RR7.opus
</region>

<region>
hivel=63
key=G3
lovel=32
offset=4420
sample=Tenors_Solo_Drum_1_RubberSticks_Hit_MP_D4_RR7.opus
</region>

<region>
hivel=95
key=G3
lovel=64
offset=4795
sample=Tenors_Solo_Drum_1_RubberSticks_Hit_MF_D4_RR7.opus
</region>

<region>
hivel=127
key=G3
lovel=96
offset=828
sample=Tenors_Solo_Drum_1_RubberSticks_Hit_F_D4_RR7.opus
</region>
</group>

<group>
color=green
group_label=Alt_Hit_RR1
seq_length=2
seq_position=1

<region>
hivel=31
key=D8
lovel=0
offset=7777
sample=Tenors_Solo_Drum_6_RubberSticks_Rim_Hit_P_D4_RR1.opus
</region>

<region>
hivel=31
key=D0
lovel=0
offset=5404
sample=Tenors_Solo_Drum_6_RubberSticks_Skank_P_D4_RR1.opus
</region>

<region>
hivel=31
key=D7
lovel=0
offset=5793
sample=Tenors_Solo_Drum_6_RubberSticks_Rim_Shot_P_D4_RR1.opus
</region>

<region>
hivel=31
key=D6
lovel=0
offset=5601
sample=Tenors_Solo_Drum_6_RubberSticks_Dry_Buzz_Stroke_P_D4_RR1.opus
</region>

<region>
hivel=31
key=D5
lovel=0
offset=5387
sample=Tenors_Solo_Drum_6_RubberSticks_Buzz_Stroke_P_D4_RR1.opus
</region>

<region>
hivel=31
key=D4
lovel=0
offset=6400
sample=Tenors_Solo_Drum_6_RubberSticks_Muted_Hit_P_D4_RR1.opus
</region>

<region>
hivel=63
key=D8
lovel=32
offset=5909
sample=Tenors_Solo_Drum_6_RubberSticks_Rim_Hit_MP_D4_RR1.opus
</region>

<region>
hivel=63
key=D0
lovel=32
offset=771
sample=Tenors_Solo_Drum_6_RubberSticks_Skank_MP_D4_RR1.opus
</region>

<region>
hivel=63
key=D7
lovel=32
offset=4026
sample=Tenors_Solo_Drum_6_RubberSticks_Rim_Shot_MP_D4_RR1.opus
</region>

<region>
hivel=63
key=D6
lovel=32
offset=5481
sample=Tenors_Solo_Drum_6_RubberSticks_Dry_Buzz_Stroke_MP_D4_RR1.opus
</region>

<region>
hivel=63
key=D5
lovel=32
offset=4951
sample=Tenors_Solo_Drum_6_RubberSticks_Buzz_Stroke_MP_D4_RR1.opus
</region>

<region>
hivel=63
key=D4
lovel=32
offset=5531
sample=Tenors_Solo_Drum_6_RubberSticks_Muted_Hit_MP_D4_RR1.opus
</region>

<region>
hivel=95
key=D8
lovel=64
offset=6202
sample=Tenors_Solo_Drum_6_RubberSticks_Rim_Hit_MF_D4_RR1.opus
</region>

<region>
hivel=95
key=D0
lovel=64
offset=698
sample=Tenors_Solo_Drum_6_RubberSticks_Skank_MF_D4_RR1.opus
</region>

<region>
hivel=95
key=D7
lovel=64
offset=706
sample=Tenors_Solo_Drum_6_RubberSticks_Rim_Shot_MF_D4_RR1.opus
</region>

<region>
hivel=95
key=D6
lovel=64
offset=628
sample=Tenors_Solo_Drum_6_RubberSticks_Dry_Buzz_Stroke_MF_D4_RR1.opus
</region>

<region>
hivel=95
key=D5
lovel=64
offset=627
sample=Tenors_Solo_Drum_6_RubberSticks_Buzz_Stroke_MF_D4_RR1.opus
</region>

<region>
hivel=95
key=D4
lovel=64
offset=586
sample=Tenors_Solo_Drum_6_RubberSticks_Muted_Hit_MF_D4_RR1.opus
</region>

<region>
hivel=127
key=D8
lovel=96
offset=4324
sample=Tenors_Solo_Drum_6_RubberSticks_Rim_Hit_F_D4_RR1.opus
</region>

<region>
hivel=127
key=D0
lovel=96
offset=698
sample=Tenors_Solo_Drum_6_RubberSticks_Skank_F_D4_RR1.opus
</region>

<region>
hivel=127
key=D7
lovel=96
offset=713
sample=Tenors_Solo_Drum_6_RubberSticks_Rim_Shot_F_D4_RR1.opus
</region>

<region>
hivel=127
key=D6
lovel=96
offset=579
sample=Tenors_Solo_Drum_6_RubberSticks_Dry_Buzz_Stroke_F_D4_RR1.opus
</region>

<region>
hivel=127
key=D5
lovel=96
offset=606
sample=Tenors_Solo_Drum_6_RubberSticks_Buzz_Stroke_F_D4_RR1.opus
</region>

<region>
hivel=127
key=D4
lovel=96
offset=696
sample=Tenors_Solo_Drum_6_RubberSticks_Muted_Hit_F_D4_RR1.opus
</region>

<region>
hivel=31
key=D#8
lovel=0
offset=3310
sample=Tenors_Solo_Drum_5_RubberSticks_Rim_Hit_P_D4_RR1.opus
</region>

<region>
hivel=31
key=D#0
lovel=0
offset=4437
sample=Tenors_Solo_Drum_5_RubberSticks_Skank_P_D4_RR1.opus
</region>

<region>
hivel=31
key=D#7
lovel=0
offset=5408
sample=Tenors_Solo_Drum_5_RubberSticks_Rim_Shot_P_D4_RR1.opus
</region>

<region>
hivel=31
key=D#6
lovel=0
offset=3754
sample=Tenors_Solo_Drum_5_RubberSticks_Dry_Buzz_Stroke_P_D4_RR1.opus
</region>

<region>
hivel=31
key=D#5
lovel=0
offset=3334
sample=Tenors_Solo_Drum_5_RubberSticks_Buzz_Stroke_P_D4_RR1.opus
</region>

<region>
hivel=31
key=D#4
lovel=0
offset=6695
sample=Tenors_Solo_Drum_5_RubberSticks_Muted_Hit_P_D4_RR1.opus
</region>

<region>
hivel=63
key=D#8
lovel=32
offset=1754
sample=Tenors_Solo_Drum_5_RubberSticks_Rim_Hit_MP_D4_RR1.opus
</region>

<region>
hivel=63
key=D#0
lovel=32
offset=2025
sample=Tenors_Solo_Drum_5_RubberSticks_Skank_MP_D4_RR1.opus
</region>

<region>
hivel=63
key=D#7
lovel=32
offset=1908
sample=Tenors_Solo_Drum_5_RubberSticks_Rim_Shot_MP_D4_RR1.opus
</region>

<region>
hivel=63
key=D#6
lovel=32
offset=1601
sample=Tenors_Solo_Drum_5_RubberSticks_Dry_Buzz_Stroke_MP_D4_RR1.opus
</region>

<region>
hivel=63
key=D#5
lovel=32
offset=24
sample=Tenors_Solo_Drum_5_RubberSticks_Buzz_Stroke_MP_D4_RR1.opus
</region>

<region>
hivel=63
key=D#4
lovel=32
offset=4033
sample=Tenors_Solo_Drum_5_RubberSticks_Muted_Hit_MP_D4_RR1.opus
</region>

<region>
hivel=95
key=D#8
lovel=64
offset=1685
sample=Tenors_Solo_Drum_5_RubberSticks_Rim_Hit_MF_D4_RR1.opus
</region>

<region>
hivel=95
key=D#0
lovel=64
offset=679
sample=Tenors_Solo_Drum_5_RubberSticks_Skank_MF_D4_RR1.opus
</region>

<region>
hivel=95
key=D#7
lovel=64
offset=579
sample=Tenors_Solo_Drum_5_RubberSticks_Rim_Shot_MF_D4_RR1.opus
</region>

<region>
hivel=95
key=D#6
lovel=64
offset=1711
sample=Tenors_Solo_Drum_5_RubberSticks_Dry_Buzz_Stroke_MF_D4_RR1.opus
</region>

<region>
hivel=95
key=D#5
lovel=64
offset=639
sample=Tenors_Solo_Drum_5_RubberSticks_Buzz_Stroke_MF_D4_RR1.opus
</region>

<region>
hivel=95
key=D#4
lovel=64
offset=738
sample=Tenors_Solo_Drum_5_RubberSticks_Muted_Hit_MF_D4_RR1.opus
</region>

<region>
hivel=127
key=D#8
lovel=96
offset=5400
sample=Tenors_Solo_Drum_5_RubberSticks_Rim_Hit_F_D4_RR1.opus
</region>

<region>
hivel=127
key=D#0
lovel=96
offset=737
sample=Tenors_Solo_Drum_5_RubberSticks_Skank_F_D4_RR1.opus
</region>

<region>
hivel=127
key=D#7
lovel=96
offset=618
sample=Tenors_Solo_Drum_5_RubberSticks_Rim_Shot_F_D4_RR1.opus
</region>

<region>
hivel=127
key=D#6
lovel=96
offset=676
sample=Tenors_Solo_Drum_5_RubberSticks_Dry_Buzz_Stroke_F_D4_RR1.opus
</region>

<region>
hivel=127
key=D#5
lovel=96
offset=646
sample=Tenors_Solo_Drum_5_RubberSticks_Buzz_Stroke_F_D4_RR1.opus
</region>

<region>
hivel=127
key=D#4
lovel=96
offset=589
sample=Tenors_Solo_Drum_5_RubberSticks_Muted_Hit_F_D4_RR1.opus
</region>

<region>
hivel=31
key=E0
lovel=0
offset=6592
sample=Tenors_Solo_Drum_4_RubberSticks_Skank_P_D4_RR1.opus
</region>

<region>
hivel=31
key=E7
lovel=0
offset=5386
sample=Tenors_Solo_Drum_4_RubberSticks_Rim_Shot_P_D4_RR1.opus
</region>

<region>
hivel=31
key=E6
lovel=0
offset=4533
sample=Tenors_Solo_Drum_4_RubberSticks_Dry_Buzz_Stroke_P_D4_RR1.opus
</region>

<region>
hivel=31
key=E5
lovel=0
offset=4295
sample=Tenors_Solo_Drum_4_RubberSticks_Buzz_Stroke_P_D4_RR1.opus
</region>

<region>
hivel=31
key=E4
lovel=0
offset=6046
sample=Tenors_Solo_Drum_4_RubberSticks_Muted_Hit_P_D4_RR1.opus
</region>

<region>
hivel=63
key=E0
lovel=32
offset=627
sample=Tenors_Solo_Drum_4_RubberSticks_Skank_MP_D4_RR1.opus
</region>

<region>
hivel=63
key=E7
lovel=32
offset=4792
sample=Tenors_Solo_Drum_4_RubberSticks_Rim_Shot_MP_D4_RR1.opus
</region>

<region>
hivel=63
key=E6
lovel=32
offset=4945
sample=Tenors_Solo_Drum_4_RubberSticks_Dry_Buzz_Stroke_MP_D4_RR1.opus
</region>

<region>
hivel=63
key=E5
lovel=32
offset=3776
sample=Tenors_Solo_Drum_4_RubberSticks_Buzz_Stroke_MP_D4_RR1.opus
</region>

<region>
hivel=63
key=E4
lovel=32
offset=4701
sample=Tenors_Solo_Drum_4_RubberSticks_Muted_Hit_MP_D4_RR1.opus
</region>

<region>
hivel=95
key=E0
lovel=64
offset=592
sample=Tenors_Solo_Drum_4_RubberSticks_Skank_MF_D4_RR1.opus
</region>

<region>
hivel=95
key=E7
lovel=64
offset=745
sample=Tenors_Solo_Drum_4_RubberSticks_Rim_Shot_MF_D4_RR1.opus
</region>

<region>
hivel=95
key=E6
lovel=64
offset=714
sample=Tenors_Solo_Drum_4_RubberSticks_Dry_Buzz_Stroke_MF_D4_RR1.opus
</region>

<region>
hivel=95
key=E5
lovel=64
offset=624
sample=Tenors_Solo_Drum_4_RubberSticks_Buzz_Stroke_MF_D4_RR1.opus
</region>

<region>
hivel=95
key=E4
lovel=64
offset=619
sample=Tenors_Solo_Drum_4_RubberSticks_Muted_Hit_MF_D4_RR1.opus
</region>

<region>
hivel=127
key=E0
lovel=96
offset=702
sample=Tenors_Solo_Drum_4_RubberSticks_Skank_F_D4_RR1.opus
</region>

<region>
hivel=127
key=E7
lovel=96
offset=582
sample=Tenors_Solo_Drum_4_RubberSticks_Rim_Shot_F_D4_RR1.opus
</region>

<region>
hivel=127
key=E6
lovel=96
offset=621
sample=Tenors_Solo_Drum_4_RubberSticks_Dry_Buzz_Stroke_F_D4_RR1.opus
</region>

<region>
hivel=127
key=E5
lovel=96
offset=696
sample=Tenors_Solo_Drum_4_RubberSticks_Buzz_Stroke_F_D4_RR1.opus
</region>

<region>
hivel=127
key=E4
lovel=96
offset=737
sample=Tenors_Solo_Drum_4_RubberSticks_Muted_Hit_F_D4_RR1.opus
</region>

<region>
hivel=31
key=F0
lovel=0
offset=5040
sample=Tenors_Solo_Drum_3_RubberSticks_Skank_P_D4_RR1.opus
</region>

<region>
hivel=31
key=F7
lovel=0
offset=6192
sample=Tenors_Solo_Drum_3_RubberSticks_Rim_Shot_P_D4_RR1.opus
</region>

<region>
hivel=31
key=F6
lovel=0
offset=4293
sample=Tenors_Solo_Drum_3_RubberSticks_Dry_Buzz_Stroke_P_D4_RR1.opus
</region>

<region>
hivel=31
key=F5
lovel=0
offset=4867
sample=Tenors_Solo_Drum_3_RubberSticks_Buzz_Stroke_P_D4_RR1.opus
</region>

<region>
hivel=31
key=F4
lovel=0
offset=4955
sample=Tenors_Solo_Drum_3_RubberSticks_Muted_Hit_P_D4_RR1.opus
</region>

<region>
hivel=63
key=F0
lovel=32
offset=588
sample=Tenors_Solo_Drum_3_RubberSticks_Skank_MP_D4_RR1.opus
</region>

<region>
hivel=63
key=F7
lovel=32
offset=710
sample=Tenors_Solo_Drum_3_RubberSticks_Rim_Shot_MP_D4_RR1.opus
</region>

<region>
hivel=63
key=F6
lovel=32
offset=3451
sample=Tenors_Solo_Drum_3_RubberSticks_Dry_Buzz_Stroke_MP_D4_RR1.opus
</region>

<region>
hivel=63
key=F5
lovel=32
offset=3752
sample=Tenors_Solo_Drum_3_RubberSticks_Buzz_Stroke_MP_D4_RR1.opus
</region>

<region>
hivel=63
key=F4
lovel=32
offset=3902
sample=Tenors_Solo_Drum_3_RubberSticks_Muted_Hit_MP_D4_RR1.opus
</region>

<region>
hivel=95
key=F0
lovel=64
offset=719
sample=Tenors_Solo_Drum_3_RubberSticks_Skank_MF_D4_RR1.opus
</region>

<region>
hivel=95
key=F7
lovel=64
offset=718
sample=Tenors_Solo_Drum_3_RubberSticks_Rim_Shot_MF_D4_RR1.opus
</region>

<region>
hivel=95
key=F6
lovel=64
offset=602
sample=Tenors_Solo_Drum_3_RubberSticks_Dry_Buzz_Stroke_MF_D4_RR1.opus
</region>

<region>
hivel=95
key=F5
lovel=64
offset=599
sample=Tenors_Solo_Drum_3_RubberSticks_Buzz_Stroke_MF_D4_RR1.opus
</region>

<region>
hivel=95
key=F4
lovel=64
offset=736
sample=Tenors_Solo_Drum_3_RubberSticks_Muted_Hit_MF_D4_RR1.opus
</region>

<region>
hivel=127
key=F0
lovel=96
offset=660
sample=Tenors_Solo_Drum_3_RubberSticks_Skank_F_D4_RR1.opus
</region>

<region>
hivel=127
key=F7
lovel=96
offset=690
sample=Tenors_Solo_Drum_3_RubberSticks_Rim_Shot_F_D4_RR1.opus
</region>

<region>
hivel=127
key=F6
lovel=96
offset=584
sample=Tenors_Solo_Drum_3_RubberSticks_Dry_Buzz_Stroke_F_D4_RR1.opus
</region>

<region>
hivel=127
key=F5
lovel=96
offset=580
sample=Tenors_Solo_Drum_3_RubberSticks_Buzz_Stroke_F_D4_RR1.opus
</region>

<region>
hivel=127
key=F4
lovel=96
offset=743
sample=Tenors_Solo_Drum_3_RubberSticks_Muted_Hit_F_D4_RR1.opus
</region>

<region>
hivel=31
key=F#0
lovel=0
offset=1583
sample=Tenors_Solo_Drum_2_RubberSticks_Skank_P_D4_RR1.opus
</region>

<region>
hivel=31
key=F#7
lovel=0
offset=2785
sample=Tenors_Solo_Drum_2_RubberSticks_Rim_Shot_P_D4_RR1.opus
</region>

<region>
hivel=31
key=F#6
lovel=0
offset=1895
sample=Tenors_Solo_Drum_2_RubberSticks_Dry_Buzz_Stroke_P_D4_RR1.opus
</region>

<region>
hivel=31
key=F#5
lovel=0
offset=1349
sample=Tenors_Solo_Drum_2_RubberSticks_Buzz_Stroke_P_D4_RR1.opus
</region>

<region>
hivel=31
key=F#4
lovel=0
offset=2895
sample=Tenors_Solo_Drum_2_RubberSticks_Muted_Hit_P_D4_RR1.opus
</region>

<region>
hivel=63
key=F#0
lovel=32
offset=719
sample=Tenors_Solo_Drum_2_RubberSticks_Skank_MP_D4_RR1.opus
</region>

<region>
hivel=63
key=F#7
lovel=32
offset=2421
sample=Tenors_Solo_Drum_2_RubberSticks_Rim_Shot_MP_D4_RR1.opus
</region>

<region>
hivel=63
key=F#6
lovel=32
offset=1839
sample=Tenors_Solo_Drum_2_RubberSticks_Dry_Buzz_Stroke_MP_D4_RR1.opus
</region>

<region>
hivel=63
key=F#5
lovel=32
offset=3485
sample=Tenors_Solo_Drum_2_RubberSticks_Buzz_Stroke_MP_D4_RR1.opus
</region>

<region>
hivel=63
key=F#4
lovel=32
offset=4352
sample=Tenors_Solo_Drum_2_RubberSticks_Muted_Hit_MP_D4_RR1.opus
</region>

<region>
hivel=95
key=F#0
lovel=64
offset=689
sample=Tenors_Solo_Drum_2_RubberSticks_Skank_MF_D4_RR1.opus
</region>

<region>
hivel=95
key=F#7
lovel=64
offset=620
sample=Tenors_Solo_Drum_2_RubberSticks_Rim_Shot_MF_D4_RR1.opus
</region>

<region>
hivel=95
key=F#6
lovel=64
offset=3381
sample=Tenors_Solo_Drum_2_RubberSticks_Dry_Buzz_Stroke_MF_D4_RR1.opus
</region>

<region>
hivel=95
key=F#5
lovel=64
offset=2882
sample=Tenors_Solo_Drum_2_RubberSticks_Buzz_Stroke_MF_D4_RR1.opus
</region>

<region>
hivel=95
key=F#4
lovel=64
offset=5030
sample=Tenors_Solo_Drum_2_RubberSticks_Muted_Hit_MF_D4_RR1.opus
</region>

<region>
hivel=127
key=F#0
lovel=96
offset=724
sample=Tenors_Solo_Drum_2_RubberSticks_Skank_F_D4_RR1.opus
</region>

<region>
hivel=127
key=F#7
lovel=96
offset=606
sample=Tenors_Solo_Drum_2_RubberSticks_Rim_Shot_F_D4_RR1.opus
</region>

<region>
hivel=127
key=F#6
lovel=96
offset=3625
sample=Tenors_Solo_Drum_2_RubberSticks_Dry_Buzz_Stroke_F_D4_RR1.opus
</region>

<region>
hivel=127
key=F#5
lovel=96
offset=724
sample=Tenors_Solo_Drum_2_RubberSticks_Buzz_Stroke_F_D4_RR1.opus
</region>

<region>
hivel=127
key=F#4
lovel=96
offset=701
sample=Tenors_Solo_Drum_2_RubberSticks_Muted_Hit_F_D4_RR1.opus
</region>

<region>
hivel=31
key=G0
lovel=0
offset=4443
sample=Tenors_Solo_Drum_1_RubberSticks_Skank_P_D4_RR1.opus
</region>

<region>
hivel=31
key=G7
lovel=0
offset=3480
sample=Tenors_Solo_Drum_1_RubberSticks_Rim_Shot_P_D4_RR1.opus
</region>

<region>
hivel=31
key=G6
lovel=0
offset=3811
sample=Tenors_Solo_Drum_1_RubberSticks_Dry_Buzz_Stroke_P_D4_RR1.opus
</region>

<region>
hivel=31
key=G5
lovel=0
offset=4999
sample=Tenors_Solo_Drum_1_RubberSticks_Buzz_Stroke_P_D4_RR1.opus
</region>

<region>
hivel=31
key=G4
lovel=0
offset=6069
sample=Tenors_Solo_Drum_1_RubberSticks_Muted_Hit_P_D4_RR1.opus
</region>

<region>
hivel=63
key=G0
lovel=32
offset=5879
sample=Tenors_Solo_Drum_1_RubberSticks_Skank_MP_D4_RR1.opus
</region>

<region>
hivel=63
key=G7
lovel=32
offset=5425
sample=Tenors_Solo_Drum_1_RubberSticks_Rim_Shot_MP_D4_RR1.opus
</region>

<region>
hivel=63
key=G6
lovel=32
offset=5571
sample=Tenors_Solo_Drum_1_RubberSticks_Dry_Buzz_Stroke_MP_D4_RR1.opus
</region>

<region>
hivel=63
key=G5
lovel=32
offset=4769
sample=Tenors_Solo_Drum_1_RubberSticks_Buzz_Stroke_MP_D4_RR1.opus
</region>

<region>
hivel=63
key=G4
lovel=32
offset=4735
sample=Tenors_Solo_Drum_1_RubberSticks_Muted_Hit_MP_D4_RR1.opus
</region>

<region>
hivel=95
key=G0
lovel=64
offset=707
sample=Tenors_Solo_Drum_1_RubberSticks_Skank_MF_D4_RR1.opus
</region>

<region>
hivel=95
key=G7
lovel=64
offset=5878
sample=Tenors_Solo_Drum_1_RubberSticks_Rim_Shot_MF_D4_RR1.opus
</region>

<region>
hivel=95
key=G6
lovel=64
offset=4109
sample=Tenors_Solo_Drum_1_RubberSticks_Dry_Buzz_Stroke_MF_D4_RR1.opus
</region>

<region>
hivel=95
key=G5
lovel=64
offset=4824
sample=Tenors_Solo_Drum_1_RubberSticks_Buzz_Stroke_MF_D4_RR1.opus
</region>

<region>
hivel=95
key=G4
lovel=64
offset=4660
sample=Tenors_Solo_Drum_1_RubberSticks_Muted_Hit_MF_D4_RR1.opus
</region>

<region>
hivel=127
key=G0
lovel=96
offset=595
sample=Tenors_Solo_Drum_1_RubberSticks_Skank_F_D4_RR1.opus
</region>

<region>
hivel=127
key=G7
lovel=96
offset=597
sample=Tenors_Solo_Drum_1_RubberSticks_Rim_Shot_F_D4_RR1.opus
</region>

<region>
hivel=127
key=G6
lovel=96
offset=4682
sample=Tenors_Solo_Drum_1_RubberSticks_Dry_Buzz_Stroke_F_D4_RR1.opus
</region>

<region>
hivel=127
key=G5
lovel=96
offset=2777
sample=Tenors_Solo_Drum_1_RubberSticks_Buzz_Stroke_F_D4_RR1.opus
</region>

<region>
hivel=127
key=G4
lovel=96
offset=700
sample=Tenors_Solo_Drum_1_RubberSticks_Muted_Hit_F_D4_RR1.opus
</region>
</group>

<group>
color=green
group_label=Alt_Hit_RR3
seq_length=2
seq_position=2

<region>
hivel=31
key=D8
lovel=0
offset=7004
sample=Tenors_Solo_Drum_6_RubberSticks_Rim_Hit_P_D4_RR3.opus
</region>

<region>
hivel=31
key=D0
lovel=0
offset=5327
sample=Tenors_Solo_Drum_6_RubberSticks_Skank_P_D4_RR3.opus
</region>

<region>
hivel=31
key=D7
lovel=0
offset=5818
sample=Tenors_Solo_Drum_6_RubberSticks_Rim_Shot_P_D4_RR3.opus
</region>

<region>
hivel=31
key=D6
lovel=0
offset=4543
sample=Tenors_Solo_Drum_6_RubberSticks_Dry_Buzz_Stroke_P_D4_RR3.opus
</region>

<region>
hivel=31
key=D4
lovel=0
offset=6408
sample=Tenors_Solo_Drum_6_RubberSticks_Muted_Hit_P_D4_RR3.opus
</region>

<region>
hivel=63
key=D8
lovel=32
offset=6520
sample=Tenors_Solo_Drum_6_RubberSticks_Rim_Hit_MP_D4_RR3.opus
</region>

<region>
hivel=63
key=D0
lovel=32
offset=1608
sample=Tenors_Solo_Drum_6_RubberSticks_Skank_MP_D4_RR3.opus
</region>

<region>
hivel=63
key=D7
lovel=32
offset=6161
sample=Tenors_Solo_Drum_6_RubberSticks_Rim_Shot_MP_D4_RR3.opus
</region>

<region>
hivel=63
key=D6
lovel=32
offset=5429
sample=Tenors_Solo_Drum_6_RubberSticks_Dry_Buzz_Stroke_MP_D4_RR3.opus
</region>

<region>
hivel=63
key=D4
lovel=32
offset=5705
sample=Tenors_Solo_Drum_6_RubberSticks_Muted_Hit_MP_D4_RR3.opus
</region>

<region>
hivel=95
key=D8
lovel=64
offset=8160
sample=Tenors_Solo_Drum_6_RubberSticks_Rim_Hit_MF_D4_RR3.opus
</region>

<region>
hivel=95
key=D0
lovel=64
offset=620
sample=Tenors_Solo_Drum_6_RubberSticks_Skank_MF_D4_RR3.opus
</region>

<region>
hivel=95
key=D7
lovel=64
offset=711
sample=Tenors_Solo_Drum_6_RubberSticks_Rim_Shot_MF_D4_RR3.opus
</region>

<region>
hivel=95
key=D6
lovel=64
offset=729
sample=Tenors_Solo_Drum_6_RubberSticks_Dry_Buzz_Stroke_MF_D4_RR3.opus
</region>

<region>
hivel=95
key=D4
lovel=64
offset=2038
sample=Tenors_Solo_Drum_6_RubberSticks_Muted_Hit_MF_D4_RR3.opus
</region>

<region>
hivel=127
key=D8
lovel=96
offset=5374
sample=Tenors_Solo_Drum_6_RubberSticks_Rim_Hit_F_D4_RR3.opus
</region>

<region>
hivel=127
key=D0
lovel=96
offset=705
sample=Tenors_Solo_Drum_6_RubberSticks_Skank_F_D4_RR3.opus
</region>

<region>
hivel=127
key=D7
lovel=96
offset=620
sample=Tenors_Solo_Drum_6_RubberSticks_Rim_Shot_F_D4_RR3.opus
</region>

<region>
hivel=127
key=D6
lovel=96
offset=704
sample=Tenors_Solo_Drum_6_RubberSticks_Dry_Buzz_Stroke_F_D4_RR3.opus
</region>

<region>
hivel=127
key=D4
lovel=96
offset=623
sample=Tenors_Solo_Drum_6_RubberSticks_Muted_Hit_F_D4_RR3.opus
</region>

<region>
hivel=31
key=D#8
lovel=0
offset=4901
sample=Tenors_Solo_Drum_5_RubberSticks_Rim_Hit_P_D4_RR3.opus
</region>

<region>
hivel=31
key=D#0
lovel=0
offset=4456
sample=Tenors_Solo_Drum_5_RubberSticks_Skank_P_D4_RR3.opus
</region>

<region>
hivel=31
key=D#7
lovel=0
offset=3307
sample=Tenors_Solo_Drum_5_RubberSticks_Rim_Shot_P_D4_RR3.opus
</region>

<region>
hivel=31
key=D#6
lovel=0
offset=3525
sample=Tenors_Solo_Drum_5_RubberSticks_Dry_Buzz_Stroke_P_D4_RR3.opus
</region>

<region>
hivel=31
key=D#4
lovel=0
offset=4418
sample=Tenors_Solo_Drum_5_RubberSticks_Muted_Hit_P_D4_RR3.opus
</region>

<region>
hivel=63
key=D#8
lovel=32
offset=1986
sample=Tenors_Solo_Drum_5_RubberSticks_Rim_Hit_MP_D4_RR3.opus
</region>

<region>
hivel=63
key=D#0
lovel=32
offset=2899
sample=Tenors_Solo_Drum_5_RubberSticks_Skank_MP_D4_RR3.opus
</region>

<region>
hivel=63
key=D#7
lovel=32
offset=2557
sample=Tenors_Solo_Drum_5_RubberSticks_Rim_Shot_MP_D4_RR3.opus
</region>

<region>
hivel=63
key=D#6
lovel=32
offset=1560
sample=Tenors_Solo_Drum_5_RubberSticks_Dry_Buzz_Stroke_MP_D4_RR3.opus
</region>

<region>
hivel=63
key=D#4
lovel=32
offset=2298
sample=Tenors_Solo_Drum_5_RubberSticks_Muted_Hit_MP_D4_RR3.opus
</region>

<region>
hivel=95
key=D#8
lovel=64
offset=3436
sample=Tenors_Solo_Drum_5_RubberSticks_Rim_Hit_MF_D4_RR3.opus
</region>

<region>
hivel=95
key=D#0
lovel=64
offset=710
sample=Tenors_Solo_Drum_5_RubberSticks_Skank_MF_D4_RR3.opus
</region>

<region>
hivel=95
key=D#7
lovel=64
offset=585
sample=Tenors_Solo_Drum_5_RubberSticks_Rim_Shot_MF_D4_RR3.opus
</region>

<region>
hivel=95
key=D#6
lovel=64
offset=717
sample=Tenors_Solo_Drum_5_RubberSticks_Dry_Buzz_Stroke_MF_D4_RR3.opus
</region>

<region>
hivel=95
key=D#4
lovel=64
offset=619
sample=Tenors_Solo_Drum_5_RubberSticks_Muted_Hit_MF_D4_RR3.opus
</region>

<region>
hivel=127
key=D#8
lovel=96
offset=5829
sample=Tenors_Solo_Drum_5_RubberSticks_Rim_Hit_F_D4_RR3.opus
</region>

<region>
hivel=127
key=D#0
lovel=96
offset=616
sample=Tenors_Solo_Drum_5_RubberSticks_Skank_F_D4_RR3.opus
</region>

<region>
hivel=127
key=D#7
lovel=96
offset=619
sample=Tenors_Solo_Drum_5_RubberSticks_Rim_Shot_F_D4_RR3.opus
</region>

<region>
hivel=127
key=D#6
lovel=96
offset=722
sample=Tenors_Solo_Drum_5_RubberSticks_Dry_Buzz_Stroke_F_D4_RR3.opus
</region>

<region>
hivel=127
key=D#4
lovel=96
offset=585
sample=Tenors_Solo_Drum_5_RubberSticks_Muted_Hit_F_D4_RR3.opus
</region>

<region>
hivel=31
key=E0
lovel=0
offset=5791
sample=Tenors_Solo_Drum_4_RubberSticks_Skank_P_D4_RR3.opus
</region>

<region>
hivel=31
key=E7
lovel=0
offset=6294
sample=Tenors_Solo_Drum_4_RubberSticks_Rim_Shot_P_D4_RR3.opus
</region>

<region>
hivel=31
key=E6
lovel=0
offset=4794
sample=Tenors_Solo_Drum_4_RubberSticks_Dry_Buzz_Stroke_P_D4_RR3.opus
</region>

<region>
hivel=31
key=E4
lovel=0
offset=6779
sample=Tenors_Solo_Drum_4_RubberSticks_Muted_Hit_P_D4_RR3.opus
</region>

<region>
hivel=63
key=E0
lovel=32
offset=2628
sample=Tenors_Solo_Drum_4_RubberSticks_Skank_MP_D4_RR3.opus
</region>

<region>
hivel=63
key=E7
lovel=32
offset=4370
sample=Tenors_Solo_Drum_4_RubberSticks_Rim_Shot_MP_D4_RR3.opus
</region>

<region>
hivel=63
key=E6
lovel=32
offset=3514
sample=Tenors_Solo_Drum_4_RubberSticks_Dry_Buzz_Stroke_MP_D4_RR3.opus
</region>

<region>
hivel=63
key=E4
lovel=32
offset=5082
sample=Tenors_Solo_Drum_4_RubberSticks_Muted_Hit_MP_D4_RR3.opus
</region>

<region>
hivel=95
key=E0
lovel=64
offset=709
sample=Tenors_Solo_Drum_4_RubberSticks_Skank_MF_D4_RR3.opus
</region>

<region>
hivel=95
key=E7
lovel=64
offset=580
sample=Tenors_Solo_Drum_4_RubberSticks_Rim_Shot_MF_D4_RR3.opus
</region>

<region>
hivel=95
key=E6
lovel=64
offset=693
sample=Tenors_Solo_Drum_4_RubberSticks_Dry_Buzz_Stroke_MF_D4_RR3.opus
</region>

<region>
hivel=95
key=E4
lovel=64
offset=621
sample=Tenors_Solo_Drum_4_RubberSticks_Muted_Hit_MF_D4_RR3.opus
</region>

<region>
hivel=127
key=E0
lovel=96
offset=700
sample=Tenors_Solo_Drum_4_RubberSticks_Skank_F_D4_RR3.opus
</region>

<region>
hivel=127
key=E7
lovel=96
offset=696
sample=Tenors_Solo_Drum_4_RubberSticks_Rim_Shot_F_D4_RR3.opus
</region>

<region>
hivel=127
key=E6
lovel=96
offset=620
sample=Tenors_Solo_Drum_4_RubberSticks_Dry_Buzz_Stroke_F_D4_RR3.opus
</region>

<region>
hivel=127
key=E4
lovel=96
offset=699
sample=Tenors_Solo_Drum_4_RubberSticks_Muted_Hit_F_D4_RR3.opus
</region>

<region>
hivel=31
key=F0
lovel=0
offset=5422
sample=Tenors_Solo_Drum_3_RubberSticks_Skank_P_D4_RR3.opus
</region>

<region>
hivel=31
key=F7
lovel=0
offset=4430
sample=Tenors_Solo_Drum_3_RubberSticks_Rim_Shot_P_D4_RR3.opus
</region>

<region>
hivel=31
key=F6
lovel=0
offset=4543
sample=Tenors_Solo_Drum_3_RubberSticks_Dry_Buzz_Stroke_P_D4_RR3.opus
</region>

<region>
hivel=31
key=F4
lovel=0
offset=5537
sample=Tenors_Solo_Drum_3_RubberSticks_Muted_Hit_P_D4_RR3.opus
</region>

<region>
hivel=63
key=F0
lovel=32
offset=2425
sample=Tenors_Solo_Drum_3_RubberSticks_Skank_MP_D4_RR3.opus
</region>

<region>
hivel=63
key=F7
lovel=32
offset=4415
sample=Tenors_Solo_Drum_3_RubberSticks_Rim_Shot_MP_D4_RR3.opus
</region>

<region>
hivel=63
key=F6
lovel=32
offset=3622
sample=Tenors_Solo_Drum_3_RubberSticks_Dry_Buzz_Stroke_MP_D4_RR3.opus
</region>

<region>
hivel=63
key=F4
lovel=32
offset=5390
sample=Tenors_Solo_Drum_3_RubberSticks_Muted_Hit_MP_D4_RR3.opus
</region>

<region>
hivel=95
key=F0
lovel=64
offset=688
sample=Tenors_Solo_Drum_3_RubberSticks_Skank_MF_D4_RR3.opus
</region>

<region>
hivel=95
key=F7
lovel=64
offset=599
sample=Tenors_Solo_Drum_3_RubberSticks_Rim_Shot_MF_D4_RR3.opus
</region>

<region>
hivel=95
key=F6
lovel=64
offset=6034
sample=Tenors_Solo_Drum_3_RubberSticks_Dry_Buzz_Stroke_MF_D4_RR3.opus
</region>

<region>
hivel=95
key=F4
lovel=64
offset=579
sample=Tenors_Solo_Drum_3_RubberSticks_Muted_Hit_MF_D4_RR3.opus
</region>

<region>
hivel=127
key=F0
lovel=96
offset=623
sample=Tenors_Solo_Drum_3_RubberSticks_Skank_F_D4_RR3.opus
</region>

<region>
hivel=127
key=F7
lovel=96
offset=702
sample=Tenors_Solo_Drum_3_RubberSticks_Rim_Shot_F_D4_RR3.opus
</region>

<region>
hivel=127
key=F6
lovel=96
offset=580
sample=Tenors_Solo_Drum_3_RubberSticks_Dry_Buzz_Stroke_F_D4_RR3.opus
</region>

<region>
hivel=127
key=F4
lovel=96
offset=711
sample=Tenors_Solo_Drum_3_RubberSticks_Muted_Hit_F_D4_RR3.opus
</region>

<region>
hivel=31
key=F#0
lovel=0
offset=2630
sample=Tenors_Solo_Drum_2_RubberSticks_Skank_P_D4_RR3.opus
</region>

<region>
hivel=31
key=F#7
lovel=0
offset=2921
sample=Tenors_Solo_Drum_2_RubberSticks_Rim_Shot_P_D4_RR3.opus
</region>

<region>
hivel=31
key=F#6
lovel=0
offset=449
sample=Tenors_Solo_Drum_2_RubberSticks_Dry_Buzz_Stroke_P_D4_RR3.opus
</region>

<region>
hivel=31
key=F#4
lovel=0
offset=2565
sample=Tenors_Solo_Drum_2_RubberSticks_Muted_Hit_P_D4_RR3.opus
</region>

<region>
hivel=63
key=F#0
lovel=32
offset=704
sample=Tenors_Solo_Drum_2_RubberSticks_Skank_MP_D4_RR3.opus
</region>

<region>
hivel=63
key=F#7
lovel=32
offset=4220
sample=Tenors_Solo_Drum_2_RubberSticks_Rim_Shot_MP_D4_RR3.opus
</region>

<region>
hivel=63
key=F#6
lovel=32
offset=2554
sample=Tenors_Solo_Drum_2_RubberSticks_Dry_Buzz_Stroke_MP_D4_RR3.opus
</region>

<region>
hivel=63
key=F#4
lovel=32
offset=2658
sample=Tenors_Solo_Drum_2_RubberSticks_Muted_Hit_MP_D4_RR3.opus
</region>

<region>
hivel=95
key=F#0
lovel=64
offset=695
sample=Tenors_Solo_Drum_2_RubberSticks_Skank_MF_D4_RR3.opus
</region>

<region>
hivel=95
key=F#7
lovel=64
offset=638
sample=Tenors_Solo_Drum_2_RubberSticks_Rim_Shot_MF_D4_RR3.opus
</region>

<region>
hivel=95
key=F#6
lovel=64
offset=3473
sample=Tenors_Solo_Drum_2_RubberSticks_Dry_Buzz_Stroke_MF_D4_RR3.opus
</region>

<region>
hivel=95
key=F#4
lovel=64
offset=3835
sample=Tenors_Solo_Drum_2_RubberSticks_Muted_Hit_MF_D4_RR3.opus
</region>

<region>
hivel=127
key=F#0
lovel=96
offset=716
sample=Tenors_Solo_Drum_2_RubberSticks_Skank_F_D4_RR3.opus
</region>

<region>
hivel=127
key=F#7
lovel=96
offset=585
sample=Tenors_Solo_Drum_2_RubberSticks_Rim_Shot_F_D4_RR3.opus
</region>

<region>
hivel=127
key=F#6
lovel=96
offset=2077
sample=Tenors_Solo_Drum_2_RubberSticks_Dry_Buzz_Stroke_F_D4_RR3.opus
</region>

<region>
hivel=127
key=F#4
lovel=96
offset=705
sample=Tenors_Solo_Drum_2_RubberSticks_Muted_Hit_F_D4_RR3.opus
</region>

<region>
hivel=31
key=G0
lovel=0
offset=4402
sample=Tenors_Solo_Drum_1_RubberSticks_Skank_P_D4_RR3.opus
</region>

<region>
hivel=31
key=G7
lovel=0
offset=3510
sample=Tenors_Solo_Drum_1_RubberSticks_Rim_Shot_P_D4_RR3.opus
</region>

<region>
hivel=31
key=G6
lovel=0
offset=4743
sample=Tenors_Solo_Drum_1_RubberSticks_Dry_Buzz_Stroke_P_D4_RR3.opus
</region>

<region>
hivel=31
key=G4
lovel=0
offset=6288
sample=Tenors_Solo_Drum_1_RubberSticks_Muted_Hit_P_D4_RR3.opus
</region>

<region>
hivel=63
key=G0
lovel=32
offset=5402
sample=Tenors_Solo_Drum_1_RubberSticks_Skank_MP_D4_RR3.opus
</region>

<region>
hivel=63
key=G7
lovel=32
offset=5381
sample=Tenors_Solo_Drum_1_RubberSticks_Rim_Shot_MP_D4_RR3.opus
</region>

<region>
hivel=63
key=G6
lovel=32
offset=5095
sample=Tenors_Solo_Drum_1_RubberSticks_Dry_Buzz_Stroke_MP_D4_RR3.opus
</region>

<region>
hivel=63
key=G4
lovel=32
offset=5419
sample=Tenors_Solo_Drum_1_RubberSticks_Muted_Hit_MP_D4_RR3.opus
</region>

<region>
hivel=95
key=G0
lovel=64
offset=5135
sample=Tenors_Solo_Drum_1_RubberSticks_Skank_MF_D4_RR3.opus
</region>

<region>
hivel=95
key=G7
lovel=64
offset=5370
sample=Tenors_Solo_Drum_1_RubberSticks_Rim_Shot_MF_D4_RR3.opus
</region>

<region>
hivel=95
key=G6
lovel=64
offset=4721
sample=Tenors_Solo_Drum_1_RubberSticks_Dry_Buzz_Stroke_MF_D4_RR3.opus
</region>

<region>
hivel=95
key=G4
lovel=64
offset=4554
sample=Tenors_Solo_Drum_1_RubberSticks_Muted_Hit_MF_D4_RR3.opus
</region>

<region>
hivel=127
key=G0
lovel=96
offset=588
sample=Tenors_Solo_Drum_1_RubberSticks_Skank_F_D4_RR3.opus
</region>

<region>
hivel=127
key=G7
lovel=96
offset=701
sample=Tenors_Solo_Drum_1_RubberSticks_Rim_Shot_F_D4_RR3.opus
</region>

<region>
hivel=127
key=G6
lovel=96
offset=4311
sample=Tenors_Solo_Drum_1_RubberSticks_Dry_Buzz_Stroke_F_D4_RR3.opus
</region>

<region>
hivel=127
key=G4
lovel=96
offset=3412
sample=Tenors_Solo_Drum_1_RubberSticks_Muted_Hit_F_D4_RR3.opus
</region>

<region>
hivel=31
key=D5
lovel=0
offset=7200
sample=Tenors_Solo_Drum_6_RubberSticks_Buzz_Stroke_P_D4_RR3.opus
</region>

<region>
hivel=63
key=D5
lovel=32
offset=5960
sample=Tenors_Solo_Drum_6_RubberSticks_Buzz_Stroke_MP_D4_RR3.opus
</region>

<region>
hivel=95
key=D5
lovel=64
offset=602
sample=Tenors_Solo_Drum_6_RubberSticks_Buzz_Stroke_MF_D4_RR3.opus
</region>

<region>
hivel=127
key=D5
lovel=96
offset=738
sample=Tenors_Solo_Drum_6_RubberSticks_Buzz_Stroke_F_D4_RR3.opus
</region>

<region>
hivel=31
key=D#5
lovel=0
offset=3022
sample=Tenors_Solo_Drum_5_RubberSticks_Buzz_Stroke_P_D4_RR3.opus
</region>

<region>
hivel=63
key=D#5
lovel=32
offset=2374
sample=Tenors_Solo_Drum_5_RubberSticks_Buzz_Stroke_MP_D4_RR3.opus
</region>

<region>
hivel=95
key=D#5
lovel=64
offset=595
sample=Tenors_Solo_Drum_5_RubberSticks_Buzz_Stroke_MF_D4_RR3.opus
</region>

<region>
hivel=127
key=D#5
lovel=96
offset=595
sample=Tenors_Solo_Drum_5_RubberSticks_Buzz_Stroke_F_D4_RR3.opus
</region>

<region>
hivel=31
key=E5
lovel=0
offset=6248
sample=Tenors_Solo_Drum_4_RubberSticks_Buzz_Stroke_P_D4_RR3.opus
</region>

<region>
hivel=63
key=E5
lovel=32
offset=4785
sample=Tenors_Solo_Drum_4_RubberSticks_Buzz_Stroke_MP_D4_RR3.opus
</region>

<region>
hivel=95
key=E5
lovel=64
offset=592
sample=Tenors_Solo_Drum_4_RubberSticks_Buzz_Stroke_MF_D4_RR3.opus
</region>

<region>
hivel=127
key=E5
lovel=96
offset=620
sample=Tenors_Solo_Drum_4_RubberSticks_Buzz_Stroke_F_D4_RR3.opus
</region>

<region>
hivel=31
key=F5
lovel=0
offset=5569
sample=Tenors_Solo_Drum_3_RubberSticks_Buzz_Stroke_P_D4_RR3.opus
</region>

<region>
hivel=63
key=F5
lovel=32
offset=3879
sample=Tenors_Solo_Drum_3_RubberSticks_Buzz_Stroke_MP_D4_RR3.opus
</region>

<region>
hivel=95
key=F5
lovel=64
offset=747
sample=Tenors_Solo_Drum_3_RubberSticks_Buzz_Stroke_MF_D4_RR3.opus
</region>

<region>
hivel=127
key=F5
lovel=96
offset=699
sample=Tenors_Solo_Drum_3_RubberSticks_Buzz_Stroke_F_D4_RR3.opus
</region>

<region>
hivel=31
key=F#5
lovel=0
offset=1750
sample=Tenors_Solo_Drum_2_RubberSticks_Buzz_Stroke_P_D4_RR3.opus
</region>

<region>
hivel=63
key=F#5
lovel=32
offset=2714
sample=Tenors_Solo_Drum_2_RubberSticks_Buzz_Stroke_MP_D4_RR3.opus
</region>

<region>
hivel=95
key=F#5
lovel=64
offset=642
sample=Tenors_Solo_Drum_2_RubberSticks_Buzz_Stroke_MF_D4_RR3.opus
</region>

<region>
hivel=127
key=F#5
lovel=96
offset=2278
sample=Tenors_Solo_Drum_2_RubberSticks_Buzz_Stroke_F_D4_RR3.opus
</region>

<region>
hivel=31
key=G5
lovel=0
offset=6802
sample=Tenors_Solo_Drum_1_RubberSticks_Buzz_Stroke_P_D4_RR3.opus
</region>

<region>
hivel=63
key=G5
lovel=32
offset=4862
sample=Tenors_Solo_Drum_1_RubberSticks_Buzz_Stroke_MP_D4_RR3.opus
</region>

<region>
hivel=95
key=G5
lovel=64
offset=4920
sample=Tenors_Solo_Drum_1_RubberSticks_Buzz_Stroke_MF_D4_RR3.opus
</region>

<region>
hivel=127
key=G5
lovel=96
offset=4737
sample=Tenors_Solo_Drum_1_RubberSticks_Buzz_Stroke_F_D4_RR3.opus
</region>
</group>

<group>
ampeg_release=0.05
color=red
group_label=Rolls_RR1_0-25
seq_length=2
seq_position=1
xf_cccurve=gain
xfin_hicc1=31
xfout_hicc1=63
xfout_locc1=32

<region>
hivel=127
key=D2
loop_end=116398
loop_mode=loop_continuous
loop_start=21631
loop_xfade=21631
lovel=0
offset=6639
sample=Tenors_Solo_Drum_6_RubberSticks_Buzz_Roll_P_D4_RR1.opus
</region>

<region>
hivel=127
key=D#2
loop_end=116398
loop_mode=loop_continuous
loop_start=21631
loop_xfade=21631
lovel=0
offset=3410
sample=Tenors_Solo_Drum_5_RubberSticks_Buzz_Roll_P_D4_RR1.opus
</region>

<region>
hivel=127
key=E2
loop_end=113724
loop_mode=loop_continuous
loop_start=21134
loop_xfade=21134
lovel=0
offset=5091
sample=Tenors_Solo_Drum_4_RubberSticks_Buzz_Roll_P_D4_RR1.opus
</region>

<region>
hivel=127
key=F2
loop_end=115187
loop_mode=loop_continuous
loop_start=21406
loop_xfade=21406
lovel=0
offset=6073
sample=Tenors_Solo_Drum_3_RubberSticks_Buzz_Roll_P_D4_RR1.opus
</region>

<region>
hivel=127
key=F#2
loop_end=116398
loop_mode=loop_continuous
loop_start=21631
loop_xfade=21631
lovel=0
offset=1920
sample=Tenors_Solo_Drum_2_RubberSticks_Buzz_Roll_P_D4_RR1.opus
</region>

<region>
hivel=127
key=G2
loop_end=116398
loop_mode=loop_continuous
loop_start=21631
loop_xfade=21631
lovel=0
offset=5807
sample=Tenors_Solo_Drum_1_RubberSticks_Buzz_Roll_P_D4_RR1.opus
</region>
</group>

<group>
ampeg_release=0.05
color=red
group_label=Rolls_RR1_26-51
seq_length=2
seq_position=1
xfin_hicc1=63
xfin_locc1=32
xfout_hicc1=95
xfout_locc1=64

<region>
hivel=127
key=D2
loop_end=115042
loop_mode=loop_continuous
loop_start=21379
loop_xfade=21379
lovel=0
offset=934
sample=Tenors_Solo_Drum_6_RubberSticks_Buzz_Roll_MP_D4_RR1.opus
</region>

<region>
hivel=127
key=D#2
loop_end=114265
loop_mode=loop_continuous
loop_start=21235
loop_xfade=21235
lovel=0
offset=2277
sample=Tenors_Solo_Drum_5_RubberSticks_Buzz_Roll_MP_D4_RR1.opus
</region>

<region>
hivel=127
key=E2
loop_end=114576
loop_mode=loop_continuous
loop_start=21293
loop_xfade=21293
lovel=0
offset=687
sample=Tenors_Solo_Drum_4_RubberSticks_Buzz_Roll_MP_D4_RR1.opus
</region>

<region>
hivel=127
key=F2
loop_end=114609
loop_mode=loop_continuous
loop_start=21299
loop_xfade=21299
lovel=0
offset=808
sample=Tenors_Solo_Drum_3_RubberSticks_Buzz_Roll_MP_D4_RR1.opus
</region>

<region>
hivel=127
key=F#2
loop_end=114676
loop_mode=loop_continuous
loop_start=21311
loop_xfade=21311
lovel=0
offset=2462
sample=Tenors_Solo_Drum_2_RubberSticks_Buzz_Roll_MP_D4_RR1.opus
</region>

<region>
hivel=127
key=G2
loop_end=116398
loop_mode=loop_continuous
loop_start=21631
loop_xfade=21631
lovel=0
offset=5115
sample=Tenors_Solo_Drum_1_RubberSticks_Buzz_Roll_MP_D4_RR1.opus
</region>
</group>

<group>
ampeg_release=0.05
color=red
group_label=Rolls_RR1_52-77
seq_length=2
seq_position=1
xfin_hicc1=95
xfin_locc1=64
xfout_hicc1=127
xfout_locc1=96

<region>
hivel=127
key=D2
loop_end=114585
loop_mode=loop_continuous
loop_start=21294
loop_xfade=21294
lovel=0
offset=621
sample=Tenors_Solo_Drum_6_RubberSticks_Buzz_Roll_MF_D4_RR1.opus
</region>

<region>
hivel=127
key=D#2
loop_end=115054
loop_mode=loop_continuous
loop_start=21381
loop_xfade=21381
lovel=0
offset=739
sample=Tenors_Solo_Drum_5_RubberSticks_Buzz_Roll_MF_D4_RR1.opus
</region>

<region>
hivel=127
key=E2
loop_end=114776
loop_mode=loop_continuous
loop_start=21330
loop_xfade=21330
lovel=0
offset=624
sample=Tenors_Solo_Drum_4_RubberSticks_Buzz_Roll_MF_D4_RR1.opus
</region>

<region>
hivel=127
key=F2
loop_end=115031
loop_mode=loop_continuous
loop_start=21377
loop_xfade=21377
lovel=0
offset=722
sample=Tenors_Solo_Drum_3_RubberSticks_Buzz_Roll_MF_D4_RR1.opus
</region>

<region>
hivel=127
key=F#2
loop_end=115210
loop_mode=loop_continuous
loop_start=21411
loop_xfade=21411
lovel=0
offset=619
sample=Tenors_Solo_Drum_2_RubberSticks_Buzz_Roll_MF_D4_RR1.opus
</region>

<region>
hivel=127
key=G2
loop_end=114328
loop_mode=loop_continuous
loop_start=21247
loop_xfade=21247
lovel=0
offset=2636
sample=Tenors_Solo_Drum_1_RubberSticks_Buzz_Roll_MF_D4_RR1.opus
</region>
</group>

<group>
ampeg_release=0.05
color=red
group_label=Rolls_RR1_78-103
seq_length=2
seq_position=1
xfin_hicc1=127
xfin_locc1=96
xfout_hicc1=127
xfout_locc1=127

<region>
hivel=127
key=D2
loop_end=114794
loop_mode=loop_continuous
loop_start=21333
loop_xfade=21333
lovel=0
offset=703
sample=Tenors_Solo_Drum_6_RubberSticks_Buzz_Roll_F_D4_RR1.opus
</region>

<region>
hivel=127
key=D#2
loop_end=114887
loop_mode=loop_continuous
loop_start=21351
loop_xfade=21351
lovel=0
offset=629
sample=Tenors_Solo_Drum_5_RubberSticks_Buzz_Roll_F_D4_RR1.opus
</region>

<region>
hivel=127
key=E2
loop_end=114198
loop_mode=loop_continuous
loop_start=21222
loop_xfade=21222
lovel=0
offset=619
sample=Tenors_Solo_Drum_4_RubberSticks_Buzz_Roll_F_D4_RR1.opus
</region>

<region>
hivel=127
key=F2
loop_end=114776
loop_mode=loop_continuous
loop_start=21330
loop_xfade=21330
lovel=0
offset=702
sample=Tenors_Solo_Drum_3_RubberSticks_Buzz_Roll_F_D4_RR1.opus
</region>

<region>
hivel=127
key=F#2
loop_end=114360
loop_mode=loop_continuous
loop_start=21253
loop_xfade=21253
lovel=0
offset=619
sample=Tenors_Solo_Drum_2_RubberSticks_Buzz_Roll_F_D4_RR1.opus
</region>

<region>
hivel=127
key=G2
loop_end=114851
loop_mode=loop_continuous
loop_start=21344
loop_xfade=21344
lovel=0
offset=1797
sample=Tenors_Solo_Drum_1_RubberSticks_Buzz_Roll_F_D4_RR1.opus
</region>
</group>

<group>
ampeg_release=0.05
color=red
group_label=Rolls_RR2_0-25
seq_length=2
seq_position=2
xf_cccurve=gain
xfin_hicc1=31
xfout_hicc1=63
xfout_locc1=32

<region>
hivel=127
key=D2
loop_end=116398
loop_mode=loop_continuous
loop_start=21631
loop_xfade=21631
lovel=0
offset=4810
sample=Tenors_Solo_Drum_6_RubberSticks_Buzz_Roll_P_D4_RR2.opus
</region>

<region>
hivel=127
key=D#2
loop_end=116398
loop_mode=loop_continuous
loop_start=21631
loop_xfade=21631
lovel=0
offset=3140
sample=Tenors_Solo_Drum_5_RubberSticks_Buzz_Roll_P_D4_RR2.opus
</region>

<region>
hivel=127
key=E2
loop_end=116398
loop_mode=loop_continuous
loop_start=21631
loop_xfade=21631
lovel=0
offset=4955
sample=Tenors_Solo_Drum_4_RubberSticks_Buzz_Roll_P_D4_RR2.opus
</region>

<region>
hivel=127
key=F2
loop_end=116394
loop_mode=loop_continuous
loop_start=21630
loop_xfade=21630
lovel=0
offset=3578
sample=Tenors_Solo_Drum_3_RubberSticks_Buzz_Roll_P_D4_RR2.opus
</region>

<region>
hivel=127
key=F#2
loop_end=116398
loop_mode=loop_continuous
loop_start=21631
loop_xfade=21631
lovel=0
offset=1968
sample=Tenors_Solo_Drum_2_RubberSticks_Buzz_Roll_P_D4_RR2.opus
</region>

<region>
hivel=127
key=G2
loop_end=116398
loop_mode=loop_continuous
loop_start=21631
loop_xfade=21631
lovel=0
offset=6604
sample=Tenors_Solo_Drum_1_RubberSticks_Buzz_Roll_P_D4_RR2.opus
</region>
</group>

<group>
ampeg_release=0.05
color=red
group_label=Rolls_RR2_26-51
seq_length=2
seq_position=2
xfin_hicc1=63
xfin_locc1=32
xfout_hicc1=95
xfout_locc1=64

<region>
hivel=127
key=D2
loop_end=114310
loop_mode=loop_continuous
loop_start=21243
loop_xfade=21243
lovel=0
offset=3360
sample=Tenors_Solo_Drum_6_RubberSticks_Buzz_Roll_MP_D4_RR2.opus
</region>

<region>
hivel=127
key=D#2
loop_end=114281
loop_mode=loop_continuous
loop_start=21238
loop_xfade=21238
lovel=0
offset=1177
sample=Tenors_Solo_Drum_5_RubberSticks_Buzz_Roll_MP_D4_RR2.opus
</region>

<region>
hivel=127
key=E2
loop_end=114720
loop_mode=loop_continuous
loop_start=21320
loop_xfade=21320
lovel=0
offset=688
sample=Tenors_Solo_Drum_4_RubberSticks_Buzz_Roll_MP_D4_RR2.opus
</region>

<region>
hivel=127
key=F2
loop_end=115209
loop_mode=loop_continuous
loop_start=21410
loop_xfade=21410
lovel=0
offset=716
sample=Tenors_Solo_Drum_3_RubberSticks_Buzz_Roll_MP_D4_RR2.opus
</region>

<region>
hivel=127
key=F#2
loop_end=113930
loop_mode=loop_continuous
loop_start=21173
loop_xfade=21173
lovel=0
offset=3116
sample=Tenors_Solo_Drum_2_RubberSticks_Buzz_Roll_MP_D4_RR2.opus
</region>

<region>
hivel=127
key=G2
loop_end=116318
loop_mode=loop_continuous
loop_start=21616
loop_xfade=21616
lovel=0
offset=5687
sample=Tenors_Solo_Drum_1_RubberSticks_Buzz_Roll_MP_D4_RR2.opus
</region>
</group>

<group>
ampeg_release=0.05
color=red
group_label=Rolls_RR2_52-77
seq_length=2
seq_position=2
xfin_hicc1=95
xfin_locc1=64
xfout_hicc1=127
xfout_locc1=96

<region>
hivel=127
key=D2
loop_end=114980
loop_mode=loop_continuous
loop_start=21368
loop_xfade=21368
lovel=0
offset=630
sample=Tenors_Solo_Drum_6_RubberSticks_Buzz_Roll_MF_D4_RR2.opus
</region>

<region>
hivel=127
key=D#2
loop_end=115095
loop_mode=loop_continuous
loop_start=21389
loop_xfade=21389
lovel=0
offset=591
sample=Tenors_Solo_Drum_5_RubberSticks_Buzz_Roll_MF_D4_RR2.opus
</region>

<region>
hivel=127
key=E2
loop_end=114582
loop_mode=loop_continuous
loop_start=21294
loop_xfade=21294
lovel=0
offset=619
sample=Tenors_Solo_Drum_4_RubberSticks_Buzz_Roll_MF_D4_RR2.opus
</region>

<region>
hivel=127
key=F2
loop_end=114971
loop_mode=loop_continuous
loop_start=21366
loop_xfade=21366
lovel=0
offset=776
sample=Tenors_Solo_Drum_3_RubberSticks_Buzz_Roll_MF_D4_RR2.opus
</region>

<region>
hivel=127
key=F#2
loop_end=114969
loop_mode=loop_continuous
loop_start=21366
loop_xfade=21366
lovel=0
offset=765
sample=Tenors_Solo_Drum_2_RubberSticks_Buzz_Roll_MF_D4_RR2.opus
</region>

<region>
hivel=127
key=G2
loop_end=114718
loop_mode=loop_continuous
loop_start=21319
loop_xfade=21319
lovel=0
offset=3880
sample=Tenors_Solo_Drum_1_RubberSticks_Buzz_Roll_MF_D4_RR2.opus
</region>
</group>

<group>
ampeg_release=0.05
color=red
group_label=Rolls_RR2_78-127
seq_length=2
seq_position=2
xfin_hicc1=127
xfin_locc1=96
xfout_hicc1=127
xfout_locc1=127

<region>
hivel=127
key=D2
loop_end=113722
loop_mode=loop_continuous
loop_start=21134
loop_xfade=21134
lovel=0
offset=3731
sample=Tenors_Solo_Drum_6_RubberSticks_Buzz_Roll_F_D4_RR2.opus
</region>

<region>
hivel=127
key=D#2
loop_end=115233
loop_mode=loop_continuous
loop_start=21415
loop_xfade=21415
lovel=0
offset=709
sample=Tenors_Solo_Drum_5_RubberSticks_Buzz_Roll_F_D4_RR2.opus
</region>

<region>
hivel=127
key=E2
loop_end=114619
loop_mode=loop_continuous
loop_start=21301
loop_xfade=21301
lovel=0
offset=620
sample=Tenors_Solo_Drum_4_RubberSticks_Buzz_Roll_F_D4_RR2.opus
</region>

<region>
hivel=127
key=F2
loop_end=114856
loop_mode=loop_continuous
loop_start=21345
loop_xfade=21345
lovel=0
offset=603
sample=Tenors_Solo_Drum_3_RubberSticks_Buzz_Roll_F_D4_RR2.opus
</region>

<region>
hivel=127
key=F#2
loop_end=114563
loop_mode=loop_continuous
loop_start=21290
loop_xfade=21290
lovel=0
offset=719
sample=Tenors_Solo_Drum_2_RubberSticks_Buzz_Roll_F_D4_RR2.opus
</region>

<region>
hivel=127
key=G2
loop_end=114587
loop_mode=loop_continuous
loop_start=21295
loop_xfade=21295
lovel=0
offset=727
sample=Tenors_Solo_Drum_1_RubberSticks_Buzz_Roll_F_D4_RR2.opus
</region>
</group>

<group>
ampeg_attack=0.01
ampeg_release=0.65
color=red
group_label=Rolls_Rel_RR1_0-25
offset=280000
seq_length=2
seq_position=1
trigger=release
xf_cccurve=gain
xfin_hicc1=31
xfout_hicc1=63
xfout_locc1=32

<region>
hivel=127
key=D2
lovel=0
new_opcode_1=280000
offset=6639
sample=Tenors_Solo_Drum_6_RubberSticks_Buzz_Roll_P_D4_RR1.opus
</region>

<region>
hivel=127
key=D#2
lovel=0
new_opcode_1=280000
offset=3410
sample=Tenors_Solo_Drum_5_RubberSticks_Buzz_Roll_P_D4_RR1.opus
</region>

<region>
hivel=127
key=E2
lovel=0
new_opcode_1=280000
offset=5091
sample=Tenors_Solo_Drum_4_RubberSticks_Buzz_Roll_P_D4_RR1.opus
</region>

<region>
hivel=127
key=F2
lovel=0
new_opcode_1=280000
offset=6073
sample=Tenors_Solo_Drum_3_RubberSticks_Buzz_Roll_P_D4_RR1.opus
</region>

<region>
hivel=127
key=F#2
lovel=0
new_opcode_1=280000
offset=1920
sample=Tenors_Solo_Drum_2_RubberSticks_Buzz_Roll_P_D4_RR1.opus
</region>

<region>
hivel=127
key=G2
lovel=0
new_opcode_1=280000
offset=5807
sample=Tenors_Solo_Drum_1_RubberSticks_Buzz_Roll_P_D4_RR1.opus
</region>
</group>

<group>
ampeg_attack=0.01
ampeg_release=0.65
color=red
group_label=Rolls_Rel_RR1_26-51
offset=280000
seq_length=2
seq_position=1
trigger=release
xfin_hicc1=63
xfin_locc1=32
xfout_hicc1=95
xfout_locc1=64

<region>
hivel=127
key=D2
lovel=0
new_opcode_1=280000
offset=934
sample=Tenors_Solo_Drum_6_RubberSticks_Buzz_Roll_MP_D4_RR1.opus
</region>

<region>
hivel=127
key=D#2
lovel=0
new_opcode_1=280000
offset=2277
sample=Tenors_Solo_Drum_5_RubberSticks_Buzz_Roll_MP_D4_RR1.opus
</region>

<region>
hivel=127
key=E2
lovel=0
new_opcode_1=280000
offset=687
sample=Tenors_Solo_Drum_4_RubberSticks_Buzz_Roll_MP_D4_RR1.opus
</region>

<region>
hivel=127
key=F2
lovel=0
new_opcode_1=280000
offset=808
sample=Tenors_Solo_Drum_3_RubberSticks_Buzz_Roll_MP_D4_RR1.opus
</region>

<region>
hivel=127
key=F#2
lovel=0
new_opcode_1=280000
offset=2462
sample=Tenors_Solo_Drum_2_RubberSticks_Buzz_Roll_MP_D4_RR1.opus
</region>

<region>
hivel=127
key=G2
lovel=0
new_opcode_1=280000
offset=5115
sample=Tenors_Solo_Drum_1_RubberSticks_Buzz_Roll_MP_D4_RR1.opus
</region>
</group>

<group>
ampeg_attack=0.01
ampeg_release=0.65
color=red
group_label=Rolls_Rel_RR1_52-77
offset=280000
seq_length=2
seq_position=1
trigger=release
xfin_hicc1=95
xfin_locc1=64
xfout_hicc1=127
xfout_locc1=96

<region>
hivel=127
key=D2
lovel=0
new_opcode_1=280000
offset=621
sample=Tenors_Solo_Drum_6_RubberSticks_Buzz_Roll_MF_D4_RR1.opus
</region>

<region>
hivel=127
key=D#2
lovel=0
new_opcode_1=280000
offset=739
sample=Tenors_Solo_Drum_5_RubberSticks_Buzz_Roll_MF_D4_RR1.opus
</region>

<region>
hivel=127
key=E2
lovel=0
new_opcode_1=280000
offset=624
sample=Tenors_Solo_Drum_4_RubberSticks_Buzz_Roll_MF_D4_RR1.opus
</region>

<region>
hivel=127
key=F2
lovel=0
new_opcode_1=280000
offset=722
sample=Tenors_Solo_Drum_3_RubberSticks_Buzz_Roll_MF_D4_RR1.opus
</region>

<region>
hivel=127
key=F#2
lovel=0
new_opcode_1=280000
offset=619
sample=Tenors_Solo_Drum_2_RubberSticks_Buzz_Roll_MF_D4_RR1.opus
</region>

<region>
hivel=127
key=G2
lovel=0
new_opcode_1=280000
offset=2636
sample=Tenors_Solo_Drum_1_RubberSticks_Buzz_Roll_MF_D4_RR1.opus
</region>
</group>

<group>
ampeg_attack=0.01
ampeg_release=0.65
color=red
group_label=Rolls_Rel_RR1_78-127
offset=280000
seq_length=2
seq_position=1
trigger=release
xfin_hicc1=127
xfin_locc1=96
xfout_hicc1=127
xfout_locc1=127

<region>
hivel=127
key=D2
lovel=0
new_opcode_1=280000
offset=703
sample=Tenors_Solo_Drum_6_RubberSticks_Buzz_Roll_F_D4_RR1.opus
</region>

<region>
hivel=127
key=D#2
lovel=0
new_opcode_1=280000
offset=629
sample=Tenors_Solo_Drum_5_RubberSticks_Buzz_Roll_F_D4_RR1.opus
</region>

<region>
hivel=127
key=E2
lovel=0
new_opcode_1=280000
offset=619
sample=Tenors_Solo_Drum_4_RubberSticks_Buzz_Roll_F_D4_RR1.opus
</region>

<region>
hivel=127
key=F2
lovel=0
new_opcode_1=280000
offset=702
sample=Tenors_Solo_Drum_3_RubberSticks_Buzz_Roll_F_D4_RR1.opus
</region>

<region>
hivel=127
key=F#2
lovel=0
new_opcode_1=280000
offset=619
sample=Tenors_Solo_Drum_2_RubberSticks_Buzz_Roll_F_D4_RR1.opus
</region>

<region>
hivel=127
key=G2
lovel=0
new_opcode_1=280000
offset=1797
sample=Tenors_Solo_Drum_1_RubberSticks_Buzz_Roll_F_D4_RR1.opus
</region>
</group>

<group>
ampeg_attack=0.01
ampeg_release=0.65
color=red
group_label=Rolls_Rel_RR2_0-25
offset=280000
seq_length=2
seq_position=2
trigger=release
xf_cccurve=gain
xfin_hicc1=31
xfout_hicc1=63
xfout_locc1=32

<region>
hivel=127
key=D2
lovel=0
new_opcode_1=280000
offset=4810
sample=Tenors_Solo_Drum_6_RubberSticks_Buzz_Roll_P_D4_RR2.opus
</region>

<region>
hivel=127
key=D#2
lovel=0
new_opcode_1=280000
offset=3140
sample=Tenors_Solo_Drum_5_RubberSticks_Buzz_Roll_P_D4_RR2.opus
</region>

<region>
hivel=127
key=E2
lovel=0
new_opcode_1=280000
offset=4955
sample=Tenors_Solo_Drum_4_RubberSticks_Buzz_Roll_P_D4_RR2.opus
</region>

<region>
hivel=127
key=F2
lovel=0
new_opcode_1=280000
offset=3578
sample=Tenors_Solo_Drum_3_RubberSticks_Buzz_Roll_P_D4_RR2.opus
</region>

<region>
hivel=127
key=F#2
lovel=0
new_opcode_1=280000
offset=1968
sample=Tenors_Solo_Drum_2_RubberSticks_Buzz_Roll_P_D4_RR2.opus
</region>

<region>
hivel=127
key=G2
lovel=0
new_opcode_1=280000
offset=6604
sample=Tenors_Solo_Drum_1_RubberSticks_Buzz_Roll_P_D4_RR2.opus
</region>
</group>

<group>
ampeg_attack=0.01
ampeg_release=0.65
color=red
group_label=Rolls_Rel_RR2_26-51
offset=280000
seq_length=2
seq_position=2
trigger=release
xfin_hicc1=63
xfin_locc1=32
xfout_hicc1=95
xfout_locc1=64

<region>
hivel=127
key=D2
lovel=0
new_opcode_1=280000
offset=3360
sample=Tenors_Solo_Drum_6_RubberSticks_Buzz_Roll_MP_D4_RR2.opus
</region>

<region>
hivel=127
key=D#2
lovel=0
new_opcode_1=280000
offset=1177
sample=Tenors_Solo_Drum_5_RubberSticks_Buzz_Roll_MP_D4_RR2.opus
</region>

<region>
hivel=127
key=E2
lovel=0
new_opcode_1=280000
offset=688
sample=Tenors_Solo_Drum_4_RubberSticks_Buzz_Roll_MP_D4_RR2.opus
</region>

<region>
hivel=127
key=F2
lovel=0
new_opcode_1=280000
offset=716
sample=Tenors_Solo_Drum_3_RubberSticks_Buzz_Roll_MP_D4_RR2.opus
</region>

<region>
hivel=127
key=F#2
lovel=0
new_opcode_1=280000
offset=3116
sample=Tenors_Solo_Drum_2_RubberSticks_Buzz_Roll_MP_D4_RR2.opus
</region>

<region>
hivel=127
key=G2
lovel=0
new_opcode_1=280000
offset=5687
sample=Tenors_Solo_Drum_1_RubberSticks_Buzz_Roll_MP_D4_RR2.opus
</region>
</group>

<group>
ampeg_attack=0.01
ampeg_release=0.65
color=red
group_label=Rolls_Rel_RR2_52-77
offset=280000
seq_length=2
seq_position=2
trigger=release
xfin_hicc1=95
xfin_locc1=64
xfout_hicc1=127
xfout_locc1=96

<region>
hivel=127
key=D2
lovel=0
new_opcode_1=280000
offset=630
sample=Tenors_Solo_Drum_6_RubberSticks_Buzz_Roll_MF_D4_RR2.opus
</region>

<region>
hivel=127
key=D#2
lovel=0
new_opcode_1=280000
offset=591
sample=Tenors_Solo_Drum_5_RubberSticks_Buzz_Roll_MF_D4_RR2.opus
</region>

<region>
hivel=127
key=E2
lovel=0
new_opcode_1=280000
offset=619
sample=Tenors_Solo_Drum_4_RubberSticks_Buzz_Roll_MF_D4_RR2.opus
</region>

<region>
hivel=127
key=F2
lovel=0
new_opcode_1=280000
offset=776
sample=Tenors_Solo_Drum_3_RubberSticks_Buzz_Roll_MF_D4_RR2.opus
</region>

<region>
hivel=127
key=F#2
lovel=0
new_opcode_1=280000
offset=765
sample=Tenors_Solo_Drum_2_RubberSticks_Buzz_Roll_MF_D4_RR2.opus
</region>

<region>
hivel=127
key=G2
lovel=0
new_opcode_1=280000
offset=3880
sample=Tenors_Solo_Drum_1_RubberSticks_Buzz_Roll_MF_D4_RR2.opus
</region>
</group>

<group>
ampeg_attack=0.01
ampeg_release=0.65
color=red
group_label=Rolls_Rel_RR2_78-127
offset=280000
seq_length=2
seq_position=2
trigger=release
xfin_hicc1=127
xfin_locc1=96
xfout_hicc1=127
xfout_locc1=127

<region>
hivel=127
key=D2
lovel=0
new_opcode_1=280000
offset=3826
sample=Tenors_Solo_Drum_6_RubberSticks_Buzz_Roll_F_D4_RR2.opus
</region>

<region>
hivel=127
key=D#2
lovel=0
new_opcode_1=280000
offset=709
sample=Tenors_Solo_Drum_5_RubberSticks_Buzz_Roll_F_D4_RR2.opus
</region>

<region>
hivel=127
key=E2
lovel=0
new_opcode_1=280000
offset=620
sample=Tenors_Solo_Drum_4_RubberSticks_Buzz_Roll_F_D4_RR2.opus
</region>

<region>
hivel=127
key=F2
lovel=0
new_opcode_1=280000
offset=603
sample=Tenors_Solo_Drum_3_RubberSticks_Buzz_Roll_F_D4_RR2.opus
</region>

<region>
hivel=127
key=F#2
lovel=0
new_opcode_1=280000
offset=719
sample=Tenors_Solo_Drum_2_RubberSticks_Buzz_Roll_F_D4_RR2.opus
</region>

<region>
hivel=127
key=G2
lovel=0
new_opcode_1=280000
offset=727
sample=Tenors_Solo_Drum_1_RubberSticks_Buzz_Roll_F_D4_RR2.opus
</region>
</group>